<svg width="826" height="541" viewBox="0 0 826 541" fill="none" xmlns="http://www.w3.org/2000/svg">
<path d="M489.214 169.173C482.964 169.173 476.764 169.493 470.634 168.943C469.164 168.813 467.574 165.943 466.694 164.083C458.354 146.183 444.314 135.483 425.304 131.083C391.594 123.273 357.074 150.173 355.394 184.743C354.064 212.214 371.734 235.224 391.394 241.944C393.834 242.784 394.884 244.344 394.784 247.084C394.584 252.664 394.724 258.264 394.724 263.904C367.724 259.564 334.894 230.594 334.964 188.004C335.034 144.503 370.444 109.893 413.964 109.653C450.914 109.443 483.894 137.733 489.214 169.173Z" fill="#CBD5E1"/>
<path d="M470.274 198.314H432.744V178.313H490.744C496.814 219.144 468.654 255.494 432.484 263.584C432.484 257.334 432.224 251.194 432.684 245.114C432.794 243.714 435.204 242.044 436.904 241.274C453.904 233.544 464.614 220.544 469.784 202.774C470.049 201.3 470.213 199.81 470.274 198.314Z" fill="#CBD5E1"/>
<path d="M403.744 198.314H373.744V178.313H423.744V266.314H403.744V198.314Z" fill="#CBD5E1"/>
<path d="M335.984 60.9122C329.984 60.0422 323.574 60.6222 321.054 54.3221C318.624 48.322 322.784 43.732 326.844 40.1219C339.794 28.6118 354.794 21.9817 372.434 23.6418C383.134 24.6418 386.074 32.1118 379.274 40.4619C370.984 50.6321 359.584 55.8221 347.194 58.9822C343.404 59.9822 339.444 60.3422 335.984 60.9122Z" fill="#CBD5E1"/>
<path d="M490.914 60.8121C475.384 59.5221 461.114 54.3621 449.544 43.0619C445.854 39.4519 442.094 35.2218 444.314 29.5118C446.654 23.5117 452.624 23.0317 457.824 23.1917C474.664 23.7217 489.454 29.6418 501.334 41.8519C504.534 45.152 507.334 49.132 505.624 54.0721C503.914 59.0121 499.004 59.7721 494.454 60.4721C493.414 60.6321 492.344 60.6821 490.914 60.8121Z" fill="#CBD5E1"/>
<path d="M335.984 315.785C351.314 316.725 364.984 321.985 376.244 332.435C380.334 336.215 384.764 340.785 382.114 347.005C379.584 352.925 373.534 353.185 368.014 353.005C352.704 352.693 338.058 346.697 326.924 336.185C322.924 332.495 318.694 328.025 321.104 322.005C323.514 315.985 329.524 315.885 335.104 315.765L335.984 315.785Z" fill="#CBD5E1"/>
<path d="M458.984 353.545C455.714 352.895 452.494 352.625 449.554 351.545C444.084 349.605 442.184 345.105 444.794 339.935C446.255 336.943 448.266 334.253 450.724 332.005C462.924 321.405 477.044 315.525 493.424 315.785C494.77 315.799 496.111 315.956 497.424 316.255C506.274 318.395 508.704 324.345 503.334 331.775C495.664 342.365 484.334 347.495 472.274 351.035C467.984 352.345 463.424 352.755 458.984 353.545Z" fill="#CBD5E1"/>
<path d="M248.054 233.054C248.524 230.694 248.794 227.164 249.974 223.964C251.824 218.964 256.234 217.194 260.974 219.504C263.857 220.839 266.467 222.698 268.674 224.984C279.283 236.242 285.318 251.048 285.604 266.514C285.744 271.955 285.294 277.995 279.174 280.375C273.264 282.665 268.974 278.545 265.344 274.735C254.634 263.414 249.344 249.654 248.054 233.054Z" fill="#CBD5E1"/>
<path d="M578.294 235.384C577.064 249.814 571.824 263.584 560.994 274.855C557.344 278.655 552.994 282.725 547.134 280.305C541.134 277.815 540.694 271.785 540.864 266.304C541.364 250.414 547.184 236.554 557.864 224.774C558.898 223.662 560.055 222.673 561.314 221.824C564.584 219.584 567.944 217.234 572.184 219.204C576.424 221.174 577.454 225.204 577.964 229.334C578.174 230.984 578.164 232.694 578.294 235.384Z" fill="#CBD5E1"/>
<path d="M248.114 142.883C249.234 127.043 254.534 113.823 264.404 102.463C265.203 101.575 266.066 100.746 266.984 99.9825C270.664 96.8525 274.714 93.9824 279.694 96.0925C284.484 98.1425 285.524 103.093 285.544 107.613C285.634 125.613 279.334 141.003 266.354 153.553C265.121 154.676 263.734 155.616 262.234 156.343C256.304 159.343 251.384 157.433 249.424 151.033C248.786 148.352 248.348 145.628 248.114 142.883Z" fill="#CBD5E1"/>
<path d="M578.414 142.983C578.159 145.652 577.711 148.299 577.074 150.903C575.074 157.483 569.964 159.493 563.934 156.133C561.809 154.965 559.877 153.478 558.204 151.723C547.289 140.346 541.09 125.257 540.854 109.493C540.704 104.303 541.314 98.5825 546.714 96.1425C552.424 93.5624 556.994 97.2825 560.714 101.143C571.804 112.613 577.214 126.603 578.414 142.983Z" fill="#CBD5E1"/>
<path d="M307.064 124.063C308.234 112.123 309.324 100.383 310.624 88.6825C310.744 87.5825 312.074 85.8224 312.994 85.6824C324.994 84.2724 336.994 83.1224 349.734 81.8224C348.644 88.6125 347.664 94.9425 346.604 101.253C345.814 106.013 345.054 110.793 343.954 115.493C343.654 116.773 342.334 118.593 341.224 118.803C330.224 120.803 319.224 122.623 308.224 124.453C307.984 124.533 307.674 124.303 307.064 124.063Z" fill="#CBD5E1"/>
<path d="M478.284 81.8424L517.174 85.8425C518.474 98.5626 519.774 111.273 521.174 124.673C514.504 123.593 508.324 122.613 502.174 121.573C497.854 120.843 493.564 119.653 489.174 119.343C485.624 119.083 484.234 117.693 483.714 114.283C482.074 103.673 480.184 93.1225 478.284 81.8424Z" fill="#CBD5E1"/>
<path d="M351.424 294.375C338.864 293.125 326.974 292.015 315.114 290.675C314.477 290.5 313.894 290.17 313.415 289.714C312.937 289.259 312.579 288.692 312.374 288.065C310.984 276.195 309.834 264.304 308.544 251.644C315.984 252.854 323.064 253.994 330.134 255.164C332.374 255.534 334.594 256.014 336.824 256.434C345.464 258.044 345.424 258.054 346.754 266.814C347.434 271.294 348.284 275.755 349.044 280.235C349.804 284.715 350.554 289.155 351.424 294.375Z" fill="#CBD5E1"/>
<path d="M476.684 294.365C478.744 282.215 480.624 270.925 482.684 259.654C482.818 259.192 483.062 258.769 483.395 258.421C483.727 258.073 484.138 257.81 484.594 257.654C496.004 255.564 507.434 253.654 519.474 251.534C518.854 258.404 518.324 264.654 517.734 270.895C517.214 276.305 516.784 281.735 515.934 287.095C515.724 288.435 514.204 290.485 513.094 290.625C501.234 291.985 489.384 293.115 476.684 294.365Z" fill="#CBD5E1"/>
<path d="M382.984 308.085L413.314 286.665C423.314 293.765 433.214 300.735 443.604 308.075C437.194 313.325 431.104 318.425 424.904 323.375C420.984 326.465 416.984 331.585 412.984 331.655C409.244 331.725 405.354 326.385 401.594 323.355C395.484 318.405 389.424 313.395 382.984 308.085Z" fill="#CBD5E1"/>
<path d="M413.254 43.432L443.584 68.1823C433.674 75.1824 424.224 81.9124 414.664 88.5025C414.157 88.7216 413.605 88.8169 413.053 88.7804C412.502 88.7439 411.967 88.5766 411.494 88.2925C402.074 81.7724 392.744 75.1124 382.984 68.1823L413.254 43.432Z" fill="#CBD5E1"/>
<path d="M268.504 188.144L293.264 157.833C300.264 167.753 307.024 177.193 313.614 186.734C313.83 187.237 313.925 187.785 313.89 188.332C313.855 188.88 313.692 189.411 313.414 189.884C306.884 199.294 300.224 208.624 293.264 218.444C284.874 208.174 276.774 198.254 268.504 188.144Z" fill="#CBD5E1"/>
<path d="M533.234 218.464L511.804 188.154L533.234 157.813L557.984 188.144L533.234 218.464Z" fill="#CBD5E1"/>
<path d="M596.984 161.493C603.424 178.663 602.574 194.874 597.414 212.204C592.704 205.554 588.464 199.574 584.244 193.594C579.244 186.594 579.244 186.544 584.244 179.593C588.254 173.773 592.354 167.983 596.984 161.493Z" fill="#CBD5E1"/>
<path d="M561.534 299.235C557.114 312.375 541.624 328.235 526.624 334.855C527.794 327.575 528.844 320.675 530.034 313.805C531.614 304.575 531.654 304.545 540.914 302.805C547.684 301.575 554.474 300.455 561.534 299.235Z" fill="#CBD5E1"/>
<path d="M229.134 212.164C223.964 194.804 223.134 178.524 229.584 161.553C235.394 169.733 240.844 177.344 246.164 185.034C246.404 185.467 246.539 185.95 246.558 186.445C246.578 186.941 246.48 187.433 246.274 187.884C240.804 195.794 235.204 203.604 229.134 212.164Z" fill="#CBD5E1"/>
<path d="M389.594 371.986L414.824 354.125L439.244 371.356C429.564 377.646 404.534 378.046 389.594 371.986Z" fill="#CBD5E1"/>
<path d="M265.984 299.155C276.264 300.915 285.494 302.465 294.704 304.155C295.112 304.268 295.487 304.475 295.8 304.76C296.113 305.045 296.354 305.399 296.504 305.795C298.224 315.295 299.804 324.795 301.594 335.325C285.804 326.775 273.854 315.855 265.984 299.155Z" fill="#CBD5E1"/>
<path d="M389.204 4.0615C406.414 -1.01855 422.624 -1.80856 439.984 4.43151C435.614 7.54154 431.984 10.2316 428.184 12.8016C423.724 15.8616 419.184 21.0817 414.664 21.1517C410.354 21.2117 405.944 15.8416 401.664 12.8216C397.724 10.1416 393.984 7.41154 389.204 4.0615Z" fill="#CBD5E1"/>
<path d="M266.044 74.9823C274.714 59.1021 285.624 47.102 302.174 39.4119C300.474 49.552 298.984 58.8721 297.294 68.1622C297.159 68.5686 296.929 68.9369 296.623 69.2362C296.317 69.5354 295.943 69.7569 295.534 69.8822C286.044 71.5922 276.544 73.1822 266.044 74.9823Z" fill="#CBD5E1"/>
<path d="M526.474 39.6819C542.554 47.212 553.404 59.1621 561.964 74.8823C554.514 73.6723 547.874 72.7023 541.274 71.4922C531.124 69.6422 531.084 69.5822 529.224 59.4921C528.124 53.492 527.224 47.562 526.224 41.5919C526.24 40.9482 526.323 40.308 526.474 39.6819Z" fill="#CBD5E1"/>
<path d="M247.788 524.829H240.948V522.453H257.832V524.829H251.028V539.877H247.788V524.829ZM261.706 522.453H264.946V529.689H274.63V522.453H277.87V539.877H274.63V532.065H264.946V539.877H261.706V522.453ZM283.924 522.453H298.18V524.829H287.164V529.581H296.992V531.957H287.164V537.501H298.54V539.877H283.924V522.453ZM313.643 540.057C313.235 540.057 311.807 539.985 309.359 539.841V537.501L313.211 537.897C314.195 537.897 314.939 537.825 315.443 537.681C315.947 537.537 316.307 537.249 316.523 536.817C316.763 536.385 316.883 535.737 316.883 534.873V522.453H320.123V534.729C320.123 536.193 319.907 537.309 319.475 538.077C319.067 538.845 318.407 539.373 317.495 539.661C316.583 539.925 315.299 540.057 313.643 540.057ZM326.182 522.453H340.438V524.829H329.422V529.581H339.25V531.957H329.422V537.501H340.798V539.877H326.182V522.453ZM343.032 522.453H346.596L350.844 536.781H351.06L355.164 522.453H358.8L363.048 536.781H363.264L367.368 522.453H370.68L364.956 539.877H361.104L356.892 525.801L352.752 539.877H348.9L343.032 522.453ZM374.135 522.453H388.391V524.829H377.375V529.581H387.203V531.957H377.375V537.501H388.751V539.877H374.135V522.453ZM393.577 522.453H396.817V537.501H407.113V539.877H393.577V522.453ZM411.049 522.453H414.289V537.501H424.585V539.877H411.049V522.453ZM433.634 540.237C431.786 540.237 429.794 540.093 427.658 539.805V537.357C430.394 537.789 432.41 538.005 433.706 538.005C435.242 538.005 436.346 537.861 437.018 537.573C437.69 537.261 438.026 536.697 438.026 535.881V534.117C438.026 533.373 437.774 532.845 437.27 532.533C436.766 532.221 435.95 532.065 434.822 532.065H432.842C431.042 532.065 429.662 531.693 428.702 530.949C427.766 530.205 427.298 529.161 427.298 527.817V526.197C427.298 523.461 429.89 522.093 435.074 522.093C435.458 522.093 437.222 522.189 440.366 522.381V524.685C438.182 524.373 436.37 524.217 434.93 524.217C433.226 524.217 432.062 524.385 431.438 524.721C430.814 525.057 430.502 525.621 430.502 526.413V527.889C430.502 529.065 431.57 529.653 433.706 529.653H435.722C439.394 529.653 441.23 531.021 441.23 533.757V535.269C441.23 537.069 440.606 538.353 439.358 539.121C438.11 539.865 436.202 540.237 433.634 540.237ZM462.825 540.237C456.609 540.237 453.501 538.125 453.501 533.901V528.789C453.501 524.325 456.609 522.093 462.825 522.093C464.913 522.093 467.121 522.273 469.449 522.633V525.297C467.097 524.721 464.913 524.433 462.897 524.433C462.129 524.433 461.481 524.469 460.953 524.541C460.425 524.589 459.897 524.697 459.369 524.865C458.793 525.033 458.325 525.273 457.965 525.585C457.629 525.897 457.353 526.305 457.137 526.809C456.897 527.313 456.777 527.937 456.777 528.681V533.937C456.777 536.625 458.865 537.969 463.041 537.969C463.977 537.969 465.273 537.849 466.929 537.609V532.713H461.997V530.373H469.989V539.445C467.781 539.973 465.393 540.237 462.825 540.237ZM480.679 522.453H484.711L492.343 539.877H488.815L487.087 535.665H477.907L476.179 539.877H472.831L480.679 522.453ZM486.115 533.361L482.659 525.009H482.335L478.879 533.361H486.115ZM496.268 522.453H499.508V537.501H509.804V539.877H496.268V522.453ZM513.741 522.453H516.981V537.501H527.277V539.877H513.741V522.453ZM531.213 522.453H545.469V524.829H534.453V529.581H544.281V531.957H534.453V537.501H545.829V539.877H531.213V522.453ZM550.655 522.453H559.583C561.119 522.453 562.319 522.585 563.183 522.849C564.047 523.089 564.671 523.521 565.055 524.145C565.439 524.769 565.631 525.657 565.631 526.809V528.285C565.631 529.629 565.139 530.661 564.155 531.381C563.171 532.101 561.887 532.461 560.303 532.461L567.071 539.877H562.787L556.811 532.893H553.895V539.877H550.655V522.453ZM559.259 530.661C560.387 530.661 561.179 530.445 561.635 530.013C562.115 529.557 562.355 528.801 562.355 527.745V527.241C562.355 526.329 562.103 525.681 561.599 525.297C561.119 524.889 560.339 524.685 559.259 524.685H553.895V530.661H559.259ZM575.191 533.325L568.063 522.453H571.699L576.847 530.733L581.995 522.453H585.631L578.467 533.217V539.877H575.191V533.325Z" fill="#CBD5E1"/>
<path d="M50.786 497.217C45.7833 497.217 41.3613 496.994 37.52 496.547C33.6787 496.1 29.882 495.341 26.13 494.269C22.11 493.197 18.8047 491.768 16.214 489.981C13.6233 488.105 11.524 485.693 9.916 482.745C8.308 479.618 7.504 476.045 7.504 472.025V435.845C7.504 431.468 8.39733 427.537 10.184 424.053C11.9707 420.48 14.3827 417.666 17.42 415.611C20.2787 413.735 23.6733 412.127 27.604 410.787C31.624 409.447 35.5547 408.554 39.396 408.107C42.612 407.75 46.498 407.571 51.054 407.571C63.382 407.571 75.174 408.509 86.43 410.385V426.197C76.0673 423.696 64.2753 422.445 51.054 422.445C35.9567 422.445 28.408 426.822 28.408 435.577V470.551C28.408 474.839 30.418 477.876 34.438 479.663C38.5473 481.45 44.7113 482.343 52.93 482.343C57.3073 482.343 61.9973 481.673 67 480.333V460.099H52.796V446.431H86.966V491.589C82.4993 493.197 76.782 494.537 69.814 495.609C62.9353 496.681 56.5927 497.217 50.786 497.217ZM143.122 497.217C138.298 497.217 133.832 496.904 129.722 496.279C125.702 495.654 121.504 494.582 117.126 493.063C112.392 491.455 108.684 488.864 106.004 485.291C103.324 481.628 101.984 477.206 101.984 472.025V433.969C101.984 429.681 102.922 425.84 104.798 422.445C106.764 419.05 109.265 416.37 112.302 414.405C114.982 412.708 118.288 411.278 122.218 410.117C126.149 408.956 129.812 408.241 133.206 407.973C136.333 407.705 139.638 407.571 143.122 407.571C147.232 407.571 150.805 407.75 153.842 408.107C156.88 408.375 160.274 409 164.026 409.983C168.314 411.234 171.843 412.752 174.612 414.539C177.382 416.326 179.704 418.827 181.58 422.043C183.546 425.348 184.528 429.324 184.528 433.969V472.025C184.528 476.849 183.233 481.003 180.642 484.487C178.141 487.971 174.657 490.606 170.19 492.393C162.15 495.609 153.128 497.217 143.122 497.217ZM143.39 482.343C146.338 482.343 148.795 482.254 150.76 482.075C152.815 481.807 154.914 481.36 157.058 480.735C159.202 480.11 160.81 479.082 161.882 477.653C163.044 476.134 163.624 474.258 163.624 472.025V433.835C163.624 429.726 161.972 426.822 158.666 425.125C155.361 423.338 150.224 422.445 143.256 422.445C136.288 422.445 131.152 423.294 127.846 424.991C124.541 426.688 122.888 429.636 122.888 433.835V472.025C122.888 474.258 123.469 476.134 124.63 477.653C125.792 479.082 127.489 480.11 129.722 480.735C131.866 481.36 133.921 481.807 135.886 482.075C137.941 482.254 140.442 482.343 143.39 482.343ZM201.351 408.911H222.255V481.003H265.001V495.877H201.351V408.911ZM279.081 408.911H316.065C326.249 408.911 334.289 409.715 340.185 411.323C346.081 412.842 350.414 415.522 353.183 419.363C355.953 423.204 357.337 428.52 357.337 435.309V470.685C357.337 477.296 356.042 482.432 353.451 486.095C350.861 489.668 346.617 492.214 340.721 493.733C334.825 495.162 326.651 495.877 316.199 495.877H279.081V408.911ZM315.261 481.003C320.979 481.003 325.267 480.78 328.125 480.333C331.073 479.797 333.173 478.814 334.423 477.385C335.763 475.956 336.433 473.722 336.433 470.685V434.907C336.433 430.798 334.781 427.939 331.475 426.331C328.259 424.634 323.078 423.785 315.931 423.785H299.985V481.003H315.261ZM428.415 418.023H398.935V408.911H470.893V418.023H441.547V495.877H428.415V418.023ZM519.396 497.217C495.097 497.217 482.948 489.356 482.948 473.633V432.495C482.948 415.879 495.097 407.571 519.396 407.571C543.962 407.571 556.246 415.834 556.246 432.361V473.633C556.246 482.03 552.851 488.06 546.062 491.723C539.272 495.386 530.384 497.217 519.396 497.217ZM519.664 488.507C535.654 488.507 543.65 483.504 543.65 473.499V432.093C543.65 421.373 535.61 416.013 519.53 416.013C511.758 416.013 505.772 417.219 501.574 419.631C497.464 422.043 495.41 426.197 495.41 432.093V473.499C495.41 483.504 503.494 488.507 519.664 488.507ZM610.209 497.217C605.474 497.217 601.32 496.904 597.747 496.279C594.263 495.654 590.823 494.582 587.429 493.063C583.855 491.455 581.086 488.998 579.121 485.693C577.245 482.388 576.307 478.368 576.307 473.633V408.911H588.769V473.499C588.769 478.948 590.6 482.834 594.263 485.157C597.925 487.39 603.33 488.507 610.477 488.507C617.623 488.507 622.939 487.39 626.423 485.157C629.996 482.834 631.783 478.948 631.783 473.499V408.911H644.245V473.633C644.245 489.356 632.899 497.217 610.209 497.217ZM700.763 497.217C676.375 497.217 664.181 489.356 664.181 473.633V432.361C664.181 415.745 676.375 407.437 700.763 407.437C709.071 407.437 717.022 408.286 724.615 409.983V419.631C716.039 417.487 708.178 416.415 701.031 416.415C697.547 416.415 694.51 416.638 691.919 417.085C689.329 417.442 686.827 418.112 684.415 419.095C679.234 421.328 676.643 425.706 676.643 432.227V472.963C676.643 482.968 684.951 487.971 701.567 487.971C708.714 487.971 716.575 486.899 725.151 484.755V494.671C717.558 496.368 709.429 497.217 700.763 497.217ZM742.498 408.911H755.496V446.431H801.726V408.911H814.724V495.877H801.726V455.543H755.496V495.877H742.498V408.911Z" fill="#CBD5E1"/>
</svg>
