<svg width="377" height="377" viewBox="0 0 377 377" fill="none" xmlns="http://www.w3.org/2000/svg">
<path d="M264.214 169.171C257.964 169.171 251.764 169.491 245.634 168.941C244.164 168.811 242.574 165.941 241.694 164.081C233.354 146.181 219.314 135.481 200.304 131.081C166.594 123.271 132.074 150.171 130.394 184.741C129.064 212.211 146.734 235.221 166.394 241.941C168.834 242.781 169.884 244.341 169.784 247.081C169.584 252.661 169.724 258.261 169.724 263.901C142.724 259.561 109.894 230.591 109.964 188.001C110.034 144.501 145.444 109.891 188.964 109.651C225.914 109.441 258.894 137.731 264.214 169.171Z" fill="#CBD5E1"/>
<path d="M245.274 198.312H207.744V178.312H265.744C271.814 219.142 243.654 255.492 207.484 263.582C207.484 257.332 207.224 251.192 207.684 245.112C207.794 243.712 210.204 242.042 211.904 241.272C228.904 233.542 239.614 220.542 244.784 202.772C245.049 201.298 245.213 199.808 245.274 198.312Z" fill="#CBD5E1"/>
<path d="M178.744 198.312H148.744V178.312H198.744V266.312H178.744V198.312Z" fill="#CBD5E1"/>
<path d="M110.984 60.9115C104.984 60.0415 98.5737 60.6215 96.0537 54.3215C93.6237 48.3215 97.7837 43.7315 101.844 40.1215C114.794 28.6115 129.794 21.9815 147.434 23.6415C158.134 24.6415 161.074 32.1115 154.274 40.4615C145.984 50.6315 134.584 55.8215 122.194 58.9815C118.404 59.9815 114.444 60.3415 110.984 60.9115Z" fill="#CBD5E1"/>
<path d="M265.914 60.8115C250.384 59.5215 236.114 54.3615 224.544 43.0615C220.854 39.4515 217.094 35.2215 219.314 29.5115C221.654 23.5115 227.624 23.0315 232.824 23.1915C249.664 23.7215 264.454 29.6415 276.334 41.8515C279.534 45.1515 282.334 49.1315 280.624 54.0715C278.914 59.0115 274.004 59.7715 269.454 60.4715C268.414 60.6315 267.344 60.6815 265.914 60.8115Z" fill="#CBD5E1"/>
<path d="M110.984 315.781C126.314 316.721 139.984 321.981 151.244 332.431C155.334 336.211 159.764 340.781 157.114 347.001C154.584 352.921 148.534 353.181 143.014 353.001C127.704 352.689 113.058 346.694 101.924 336.181C97.9236 332.491 93.6936 328.021 96.1036 322.001C98.5136 315.981 104.524 315.881 110.104 315.761L110.984 315.781Z" fill="#CBD5E1"/>
<path d="M233.984 353.541C230.714 352.891 227.494 352.621 224.554 351.541C219.084 349.601 217.184 345.101 219.794 339.931C221.255 336.939 223.266 334.249 225.724 332.001C237.924 321.401 252.044 315.521 268.424 315.781C269.77 315.795 271.111 315.953 272.424 316.251C281.274 318.391 283.704 324.341 278.334 331.771C270.664 342.361 259.334 347.491 247.274 351.031C242.984 352.341 238.424 352.751 233.984 353.541Z" fill="#CBD5E1"/>
<path d="M23.0536 233.051C23.5236 230.691 23.7937 227.161 24.9736 223.961C26.8237 218.961 31.2337 217.191 35.9737 219.501C38.8567 220.837 41.4674 222.695 43.6736 224.981C54.2826 236.239 60.3182 251.045 60.6036 266.511C60.7436 271.951 60.2936 277.991 54.1736 280.371C48.2636 282.661 43.9737 278.541 40.3437 274.731C29.6337 263.411 24.3436 249.651 23.0536 233.051Z" fill="#CBD5E1"/>
<path d="M353.294 235.381C352.064 249.811 346.824 263.581 335.994 274.851C332.344 278.651 327.994 282.722 322.134 280.302C316.134 277.812 315.694 271.782 315.864 266.302C316.364 250.412 322.184 236.551 332.864 224.771C333.898 223.66 335.055 222.67 336.314 221.822C339.584 219.582 342.944 217.232 347.184 219.202C351.424 221.172 352.454 225.202 352.964 229.332C353.174 230.982 353.164 232.691 353.294 235.381Z" fill="#CBD5E1"/>
<path d="M23.1136 142.881C24.2336 127.041 29.5336 113.821 39.4036 102.461C40.2033 101.574 41.0655 100.745 41.9836 99.9815C45.6636 96.8515 49.7136 93.9815 54.6936 96.0915C59.4836 98.1415 60.5236 103.091 60.5436 107.611C60.6336 125.611 54.3336 141.001 41.3536 153.551C40.1212 154.674 38.7337 155.614 37.2336 156.341C31.3036 159.341 26.3836 157.431 24.4236 151.031C23.7861 148.351 23.3483 145.627 23.1136 142.881Z" fill="#CBD5E1"/>
<path d="M353.414 142.981C353.159 145.65 352.711 148.297 352.074 150.901C350.074 157.481 344.964 159.491 338.934 156.131C336.809 154.963 334.877 153.476 333.204 151.721C322.289 140.345 316.09 125.255 315.854 109.491C315.704 104.301 316.314 98.5815 321.714 96.1415C327.424 93.5615 331.994 97.2815 335.714 101.141C346.804 112.611 352.214 126.601 353.414 142.981Z" fill="#CBD5E1"/>
<path d="M82.0637 124.061C83.2337 112.121 84.3237 100.381 85.6237 88.6814C85.7437 87.5814 87.0737 85.8214 87.9937 85.6814C99.9937 84.2714 111.994 83.1214 124.734 81.8214C123.644 88.6114 122.664 94.9414 121.604 101.251C120.814 106.011 120.054 110.791 118.954 115.491C118.654 116.771 117.334 118.591 116.224 118.801C105.224 120.801 94.2237 122.621 83.2237 124.451C82.9837 124.531 82.6737 124.301 82.0637 124.061Z" fill="#CBD5E1"/>
<path d="M253.284 81.8414L292.174 85.8414C293.474 98.5614 294.774 111.271 296.174 124.671C289.504 123.591 283.324 122.611 277.174 121.571C272.854 120.841 268.564 119.651 264.174 119.341C260.624 119.081 259.234 117.691 258.714 114.281C257.074 103.671 255.184 93.1214 253.284 81.8414Z" fill="#CBD5E1"/>
<path d="M126.424 294.371C113.864 293.121 101.974 292.011 90.1137 290.671C89.477 290.496 88.8936 290.166 88.4155 289.711C87.9374 289.256 87.5795 288.689 87.3737 288.061C85.9837 276.191 84.8337 264.301 83.5437 251.641C90.9837 252.851 98.0637 253.991 105.134 255.161C107.374 255.531 109.594 256.011 111.824 256.431C120.464 258.041 120.424 258.051 121.754 266.811C122.434 271.291 123.284 275.751 124.044 280.231C124.804 284.711 125.554 289.151 126.424 294.371Z" fill="#CBD5E1"/>
<path d="M251.684 294.361C253.744 282.211 255.624 270.922 257.684 259.652C257.818 259.189 258.062 258.766 258.394 258.418C258.727 258.07 259.138 257.807 259.594 257.652C271.004 255.562 282.434 253.651 294.474 251.531C293.854 258.401 293.324 264.651 292.734 270.891C292.214 276.301 291.784 281.731 290.934 287.091C290.724 288.431 289.204 290.482 288.094 290.622C276.234 291.982 264.384 293.111 251.684 294.361Z" fill="#CBD5E1"/>
<path d="M157.984 308.081L188.314 286.661C198.314 293.761 208.214 300.731 218.604 308.071C212.194 313.321 206.104 318.421 199.904 323.371C195.984 326.461 191.984 331.581 187.984 331.651C184.244 331.721 180.354 326.381 176.594 323.351C170.484 318.401 164.424 313.391 157.984 308.081Z" fill="#CBD5E1"/>
<path d="M188.254 43.4314L218.584 68.1814C208.674 75.1814 199.224 81.9114 189.664 88.5014C189.157 88.7205 188.605 88.8158 188.053 88.7792C187.502 88.7427 186.967 88.5755 186.494 88.2914C177.074 81.7714 167.744 75.1114 157.984 68.1814L188.254 43.4314Z" fill="#CBD5E1"/>
<path d="M43.5037 188.141L68.2637 157.831C75.2637 167.751 82.0237 177.191 88.6137 186.731C88.8301 187.235 88.9249 187.783 88.8901 188.33C88.8554 188.878 88.6921 189.409 88.4137 189.881C81.8837 199.291 75.2237 208.621 68.2637 218.441C59.8737 208.171 51.7737 198.251 43.5037 188.141Z" fill="#CBD5E1"/>
<path d="M308.234 218.462L286.804 188.152L308.234 157.812L332.984 188.142L308.234 218.462Z" fill="#CBD5E1"/>
<path d="M371.984 161.491C378.424 178.661 377.574 194.871 372.414 212.201C367.704 205.551 363.464 199.571 359.244 193.591C354.244 186.591 354.244 186.541 359.244 179.591C363.254 173.771 367.354 167.981 371.984 161.491Z" fill="#CBD5E1"/>
<path d="M336.534 299.231C332.114 312.371 316.624 328.231 301.624 334.851C302.794 327.571 303.844 320.671 305.034 313.801C306.614 304.571 306.654 304.541 315.914 302.801C322.684 301.571 329.474 300.451 336.534 299.231Z" fill="#CBD5E1"/>
<path d="M4.13366 212.161C-1.03634 194.801 -1.86634 178.522 4.58366 161.552C10.3937 169.732 15.8437 177.342 21.1637 185.032C21.4041 185.465 21.5394 185.948 21.5585 186.443C21.5776 186.938 21.48 187.431 21.2737 187.882C15.8037 195.792 10.2037 203.601 4.13366 212.161Z" fill="#CBD5E1"/>
<path d="M164.594 371.981L189.824 354.121L214.244 371.351C204.564 377.641 179.534 378.041 164.594 371.981Z" fill="#CBD5E1"/>
<path d="M40.9836 299.151C51.2636 300.911 60.4936 302.461 69.7036 304.151C70.1115 304.264 70.4871 304.471 70.7998 304.756C71.1126 305.041 71.3537 305.396 71.5036 305.791C73.2236 315.291 74.8036 324.791 76.5936 335.321C60.8036 326.771 48.8536 315.851 40.9836 299.151Z" fill="#CBD5E1"/>
<path d="M164.204 4.06146C181.414 -1.01854 197.624 -1.80854 214.984 4.43146C210.614 7.54146 206.984 10.2315 203.184 12.8015C198.724 15.8615 194.184 21.0815 189.664 21.1515C185.354 21.2115 180.944 15.8415 176.664 12.8215C172.724 10.1415 168.984 7.41146 164.204 4.06146Z" fill="#CBD5E1"/>
<path d="M41.0436 74.9815C49.7136 59.1015 60.6236 47.1015 77.1736 39.4115C75.4736 49.5515 73.9836 58.8715 72.2936 68.1615C72.159 68.5679 71.9289 68.9362 71.6227 69.2355C71.3165 69.5347 70.9431 69.7562 70.5336 69.8815C61.0436 71.5915 51.5436 73.1815 41.0436 74.9815Z" fill="#CBD5E1"/>
<path d="M301.474 39.6814C317.554 47.2114 328.404 59.1614 336.964 74.8814C329.514 73.6714 322.874 72.7014 316.274 71.4914C306.124 69.6414 306.084 69.5814 304.224 59.4914C303.124 53.4914 302.224 47.5614 301.224 41.5914C301.24 40.9477 301.323 40.3075 301.474 39.6814Z" fill="#CBD5E1"/>
</svg>
