<svg width="787" height="377" viewBox="0 0 787 377" fill="none" xmlns="http://www.w3.org/2000/svg">
<path d="M448.948 208.332H425.008V200.016H484.102V208.332H460.288V261H448.948V208.332ZM525.883 262.26C521.431 262.26 517.567 261.966 514.291 261.378C511.099 260.79 508.033 259.782 505.093 258.354C501.985 256.842 499.591 254.532 497.911 251.424C496.231 248.316 495.391 244.536 495.391 240.084V222.192C495.391 218.412 495.979 215.052 497.155 212.112C498.415 209.172 500.053 206.82 502.069 205.056C503.833 203.544 506.101 202.284 508.873 201.276C511.729 200.184 514.543 199.47 517.315 199.134C519.835 198.882 522.691 198.756 525.883 198.756C530.251 198.756 534.031 199.05 537.223 199.638C540.415 200.226 543.565 201.234 546.673 202.662C549.949 204.258 552.427 206.694 554.107 209.97C555.871 213.246 556.753 217.278 556.753 222.066V240.084C556.753 254.868 546.463 262.26 525.883 262.26ZM526.135 254.322C532.771 254.322 537.559 253.314 540.499 251.298C543.439 249.282 544.909 245.586 544.909 240.21V221.562C544.909 215.85 543.397 211.902 540.373 209.718C537.433 207.534 532.645 206.442 526.009 206.442C519.373 206.442 514.543 207.534 511.519 209.718C508.579 211.818 507.109 215.766 507.109 221.562V240.21C507.109 245.502 508.621 249.198 511.645 251.298C514.753 253.314 519.583 254.322 526.135 254.322ZM603.769 262.26C599.401 262.26 595.705 261.966 592.681 261.378C589.741 260.79 586.927 259.782 584.239 258.354C578.527 255.246 575.671 249.156 575.671 240.084V200.016H587.011V240.21C587.011 245.586 588.271 249.282 590.791 251.298C593.395 253.314 597.805 254.322 604.021 254.322C610.153 254.322 614.437 253.356 616.873 251.424C619.393 249.408 620.653 245.67 620.653 240.21V200.016H631.993V240.084C631.993 244.536 631.237 248.316 629.725 251.424C628.213 254.532 626.071 256.8 623.299 258.228C620.527 259.74 617.587 260.79 614.479 261.378C611.455 261.966 607.885 262.26 603.769 262.26ZM681.289 262.26C676.837 262.26 672.973 261.966 669.697 261.378C666.505 260.79 663.439 259.782 660.499 258.354C657.391 256.842 654.955 254.532 653.191 251.424C651.511 248.316 650.671 244.536 650.671 240.084V222.192C650.671 218.412 651.259 215.052 652.435 212.112C653.695 209.172 655.333 206.82 657.349 205.056C659.113 203.544 661.381 202.284 664.153 201.276C667.009 200.184 669.823 199.47 672.595 199.134C675.283 198.882 678.181 198.756 681.289 198.756C688.681 198.756 695.737 199.47 702.457 200.898V209.97C694.393 207.954 687.421 206.946 681.541 206.946C674.653 206.946 669.697 207.996 666.673 210.096C663.649 212.196 662.137 216.102 662.137 221.814V239.706C662.137 244.914 663.775 248.568 667.051 250.668C670.327 252.768 675.325 253.818 682.045 253.818C687.925 253.818 694.897 252.81 702.961 250.794V260.118C696.241 261.546 689.017 262.26 681.289 262.26ZM719.267 200.016H730.607V225.342H764.501V200.016H775.841V261H764.501V233.658H730.607V261H719.267V200.016Z" fill="#CBD5E1"/>
<path d="M439.772 290.952H432.932V288.576H449.816V290.952H443.012V306H439.772V290.952ZM453.689 288.576H456.929V295.812H466.613V288.576H469.853V306H466.613V298.188H456.929V306H453.689V288.576ZM475.908 288.576H490.164V290.952H479.148V295.704H488.976V298.08H479.148V303.624H490.524V306H475.908V288.576ZM505.626 306.18C505.218 306.18 503.79 306.108 501.342 305.964V303.624L505.194 304.02C506.178 304.02 506.922 303.948 507.426 303.804C507.93 303.66 508.29 303.372 508.506 302.94C508.746 302.508 508.866 301.86 508.866 300.996V288.576H512.106V300.852C512.106 302.316 511.89 303.432 511.458 304.2C511.05 304.968 510.39 305.496 509.478 305.784C508.566 306.048 507.282 306.18 505.626 306.18ZM518.166 288.576H532.422V290.952H521.406V295.704H531.234V298.08H521.406V303.624H532.782V306H518.166V288.576ZM535.015 288.576H538.579L542.827 302.904H543.043L547.147 288.576H550.783L555.031 302.904H555.247L559.351 288.576H562.663L556.939 306H553.087L548.875 291.924L544.735 306H540.883L535.015 288.576ZM566.119 288.576H580.375V290.952H569.359V295.704H579.187V298.08H569.359V303.624H580.735V306H566.119V288.576ZM585.56 288.576H588.8V303.624H599.096V306H585.56V288.576ZM603.033 288.576H606.273V303.624H616.569V306H603.033V288.576ZM625.618 306.36C623.77 306.36 621.778 306.216 619.642 305.928V303.48C622.378 303.912 624.394 304.128 625.69 304.128C627.226 304.128 628.33 303.984 629.002 303.696C629.674 303.384 630.01 302.82 630.01 302.004V300.24C630.01 299.496 629.758 298.968 629.254 298.656C628.75 298.344 627.934 298.188 626.806 298.188H624.826C623.026 298.188 621.646 297.816 620.686 297.072C619.75 296.328 619.282 295.284 619.282 293.94V292.32C619.282 289.584 621.874 288.216 627.058 288.216C627.442 288.216 629.206 288.312 632.35 288.504V290.808C630.166 290.496 628.354 290.34 626.914 290.34C625.21 290.34 624.046 290.508 623.422 290.844C622.798 291.18 622.486 291.744 622.486 292.536V294.012C622.486 295.188 623.554 295.776 625.69 295.776H627.706C631.378 295.776 633.214 297.144 633.214 299.88V301.392C633.214 303.192 632.59 304.476 631.342 305.244C630.094 305.988 628.186 306.36 625.618 306.36ZM654.809 306.36C648.593 306.36 645.485 304.248 645.485 300.024V294.912C645.485 290.448 648.593 288.216 654.809 288.216C656.897 288.216 659.105 288.396 661.433 288.756V291.42C659.081 290.844 656.897 290.556 654.881 290.556C654.113 290.556 653.465 290.592 652.937 290.664C652.409 290.712 651.881 290.82 651.353 290.988C650.777 291.156 650.309 291.396 649.949 291.708C649.613 292.02 649.337 292.428 649.121 292.932C648.881 293.436 648.761 294.06 648.761 294.804V300.06C648.761 302.748 650.849 304.092 655.025 304.092C655.961 304.092 657.257 303.972 658.913 303.732V298.836H653.981V296.496H661.973V305.568C659.765 306.096 657.377 306.36 654.809 306.36ZM672.663 288.576H676.695L684.327 306H680.799L679.071 301.788H669.891L668.163 306H664.815L672.663 288.576ZM678.099 299.484L674.643 291.132H674.319L670.863 299.484H678.099ZM688.252 288.576H691.492V303.624H701.788V306H688.252V288.576ZM705.724 288.576H708.964V303.624H719.26V306H705.724V288.576ZM723.197 288.576H737.453V290.952H726.437V295.704H736.265V298.08H726.437V303.624H737.813V306H723.197V288.576ZM742.639 288.576H751.567C753.103 288.576 754.303 288.708 755.167 288.972C756.031 289.212 756.655 289.644 757.039 290.268C757.423 290.892 757.615 291.78 757.615 292.932V294.408C757.615 295.752 757.123 296.784 756.139 297.504C755.155 298.224 753.871 298.584 752.287 298.584L759.055 306H754.771L748.795 299.016H745.879V306H742.639V288.576ZM751.243 296.784C752.371 296.784 753.163 296.568 753.619 296.136C754.099 295.68 754.339 294.924 754.339 293.868V293.364C754.339 292.452 754.087 291.804 753.583 291.42C753.103 291.012 752.323 290.808 751.243 290.808H745.879V296.784H751.243ZM767.175 299.448L760.047 288.576H763.683L768.831 296.856L773.979 288.576H777.615L770.451 299.34V306H767.175V299.448Z" fill="#CBD5E1"/>
<path d="M472.77 158.34C467.767 158.34 463.345 158.117 459.504 157.67C455.662 157.223 451.866 156.464 448.114 155.392C444.094 154.32 440.788 152.891 438.198 151.104C435.607 149.228 433.508 146.816 431.9 143.868C430.292 140.741 429.488 137.168 429.488 133.148V96.968C429.488 92.5907 430.381 88.66 432.168 85.176C433.954 81.6027 436.366 78.7887 439.404 76.734C442.262 74.858 445.657 73.25 449.588 71.91C453.608 70.57 457.538 69.6767 461.38 69.23C464.596 68.8727 468.482 68.694 473.038 68.694C485.366 68.694 497.158 69.632 508.414 71.508V87.32C498.051 84.8187 486.259 83.568 473.038 83.568C457.94 83.568 450.392 87.9453 450.392 96.7V131.674C450.392 135.962 452.402 138.999 456.422 140.786C460.531 142.573 466.695 143.466 474.914 143.466C479.291 143.466 483.981 142.796 488.984 141.456V121.222H474.78V107.554H508.95V152.712C504.483 154.32 498.766 155.66 491.798 156.732C484.919 157.804 478.576 158.34 472.77 158.34ZM565.106 158.34C560.282 158.34 555.815 158.027 551.706 157.402C547.686 156.777 543.487 155.705 539.11 154.186C534.375 152.578 530.668 149.987 527.988 146.414C525.308 142.751 523.968 138.329 523.968 133.148V95.092C523.968 90.804 524.906 86.9627 526.782 83.568C528.747 80.1733 531.249 77.4933 534.286 75.528C536.966 73.8307 540.271 72.4013 544.202 71.24C548.133 70.0787 551.795 69.364 555.19 69.096C558.317 68.828 561.622 68.694 565.106 68.694C569.215 68.694 572.789 68.8727 575.826 69.23C578.863 69.498 582.258 70.1233 586.01 71.106C590.298 72.3567 593.827 73.8753 596.596 75.662C599.365 77.4487 601.688 79.95 603.564 83.166C605.529 86.4713 606.512 90.4467 606.512 95.092V133.148C606.512 137.972 605.217 142.126 602.626 145.61C600.125 149.094 596.641 151.729 592.174 153.516C584.134 156.732 575.111 158.34 565.106 158.34ZM565.374 143.466C568.322 143.466 570.779 143.377 572.744 143.198C574.799 142.93 576.898 142.483 579.042 141.858C581.186 141.233 582.794 140.205 583.866 138.776C585.027 137.257 585.608 135.381 585.608 133.148V94.958C585.608 90.8487 583.955 87.9453 580.65 86.248C577.345 84.4613 572.208 83.568 565.24 83.568C558.272 83.568 553.135 84.4167 549.83 86.114C546.525 87.8113 544.872 90.7593 544.872 94.958V133.148C544.872 135.381 545.453 137.257 546.614 138.776C547.775 140.205 549.473 141.233 551.706 141.858C553.85 142.483 555.905 142.93 557.87 143.198C559.925 143.377 562.426 143.466 565.374 143.466ZM623.334 70.034H644.238V142.126H686.984V157H623.334V70.034ZM701.065 70.034H738.049C748.233 70.034 756.273 70.838 762.169 72.446C768.065 73.9647 772.397 76.6447 775.167 80.486C777.936 84.3273 779.321 89.6427 779.321 96.432V131.808C779.321 138.419 778.025 143.555 775.435 147.218C772.844 150.791 768.601 153.337 762.705 154.856C756.809 156.285 748.635 157 738.183 157H701.065V70.034ZM737.245 142.126C742.962 142.126 747.25 141.903 750.109 141.456C753.057 140.92 755.156 139.937 756.407 138.508C757.747 137.079 758.417 134.845 758.417 131.808V96.03C758.417 91.9207 756.764 89.062 753.459 87.454C750.243 85.7567 745.061 84.908 737.915 84.908H721.969V142.126H737.245Z" fill="#CBD5E1"/>
<path d="M264.214 169.171C257.964 169.171 251.764 169.491 245.634 168.941C244.164 168.811 242.574 165.941 241.694 164.081C233.354 146.181 219.314 135.481 200.304 131.081C166.594 123.271 132.074 150.171 130.394 184.741C129.064 212.211 146.734 235.221 166.394 241.941C168.834 242.781 169.884 244.341 169.784 247.081C169.584 252.661 169.724 258.261 169.724 263.901C142.724 259.561 109.894 230.591 109.964 188.001C110.034 144.501 145.444 109.891 188.964 109.651C225.914 109.441 258.894 137.731 264.214 169.171Z" fill="#CBD5E1"/>
<path d="M245.274 198.312H207.744V178.312H265.744C271.814 219.142 243.654 255.492 207.484 263.582C207.484 257.332 207.224 251.192 207.684 245.112C207.794 243.712 210.204 242.042 211.904 241.272C228.904 233.542 239.614 220.542 244.784 202.772C245.049 201.298 245.213 199.808 245.274 198.312Z" fill="#CBD5E1"/>
<path d="M178.744 198.312H148.744V178.312H198.744V266.312H178.744V198.312Z" fill="#CBD5E1"/>
<path d="M110.984 60.9115C104.984 60.0415 98.5737 60.6215 96.0537 54.3215C93.6237 48.3215 97.7837 43.7315 101.844 40.1215C114.794 28.6115 129.794 21.9815 147.434 23.6415C158.134 24.6415 161.074 32.1115 154.274 40.4615C145.984 50.6315 134.584 55.8215 122.194 58.9815C118.404 59.9815 114.444 60.3415 110.984 60.9115Z" fill="#CBD5E1"/>
<path d="M265.914 60.8115C250.384 59.5215 236.114 54.3615 224.544 43.0615C220.854 39.4515 217.094 35.2215 219.314 29.5115C221.654 23.5115 227.624 23.0315 232.824 23.1915C249.664 23.7215 264.454 29.6415 276.334 41.8515C279.534 45.1515 282.334 49.1315 280.624 54.0715C278.914 59.0115 274.004 59.7715 269.454 60.4715C268.414 60.6315 267.344 60.6815 265.914 60.8115Z" fill="#CBD5E1"/>
<path d="M110.984 315.781C126.314 316.721 139.984 321.981 151.244 332.431C155.334 336.211 159.764 340.781 157.114 347.001C154.584 352.921 148.534 353.181 143.014 353.001C127.704 352.689 113.058 346.694 101.924 336.181C97.9236 332.491 93.6936 328.021 96.1036 322.001C98.5136 315.981 104.524 315.881 110.104 315.761L110.984 315.781Z" fill="#CBD5E1"/>
<path d="M233.984 353.541C230.714 352.891 227.494 352.621 224.554 351.541C219.084 349.601 217.184 345.101 219.794 339.931C221.255 336.939 223.266 334.249 225.724 332.001C237.924 321.401 252.044 315.521 268.424 315.781C269.77 315.795 271.111 315.953 272.424 316.251C281.274 318.391 283.704 324.341 278.334 331.771C270.664 342.361 259.334 347.491 247.274 351.031C242.984 352.341 238.424 352.751 233.984 353.541Z" fill="#CBD5E1"/>
<path d="M23.0536 233.051C23.5236 230.691 23.7937 227.161 24.9736 223.961C26.8237 218.961 31.2337 217.191 35.9737 219.501C38.8567 220.837 41.4674 222.695 43.6736 224.981C54.2826 236.239 60.3182 251.045 60.6036 266.511C60.7436 271.951 60.2936 277.991 54.1736 280.371C48.2636 282.661 43.9737 278.541 40.3437 274.731C29.6337 263.411 24.3436 249.651 23.0536 233.051Z" fill="#CBD5E1"/>
<path d="M353.294 235.381C352.064 249.811 346.824 263.581 335.994 274.851C332.344 278.651 327.994 282.722 322.134 280.302C316.134 277.812 315.694 271.782 315.864 266.302C316.364 250.412 322.184 236.551 332.864 224.771C333.898 223.66 335.055 222.67 336.314 221.822C339.584 219.582 342.944 217.232 347.184 219.202C351.424 221.172 352.454 225.202 352.964 229.332C353.174 230.982 353.164 232.691 353.294 235.381Z" fill="#CBD5E1"/>
<path d="M23.1136 142.881C24.2336 127.041 29.5336 113.821 39.4036 102.461C40.2033 101.574 41.0655 100.745 41.9836 99.9815C45.6636 96.8515 49.7136 93.9815 54.6936 96.0915C59.4836 98.1415 60.5236 103.091 60.5436 107.611C60.6336 125.611 54.3336 141.001 41.3536 153.551C40.1212 154.674 38.7337 155.614 37.2336 156.341C31.3036 159.341 26.3836 157.431 24.4236 151.031C23.7861 148.351 23.3483 145.627 23.1136 142.881Z" fill="#CBD5E1"/>
<path d="M353.414 142.981C353.159 145.65 352.711 148.297 352.074 150.901C350.074 157.481 344.964 159.491 338.934 156.131C336.809 154.963 334.877 153.476 333.204 151.721C322.289 140.345 316.09 125.255 315.854 109.491C315.704 104.301 316.314 98.5815 321.714 96.1415C327.424 93.5615 331.994 97.2815 335.714 101.141C346.804 112.611 352.214 126.601 353.414 142.981Z" fill="#CBD5E1"/>
<path d="M82.0637 124.061C83.2337 112.121 84.3237 100.381 85.6237 88.6814C85.7437 87.5814 87.0737 85.8214 87.9937 85.6814C99.9937 84.2714 111.994 83.1214 124.734 81.8214C123.644 88.6114 122.664 94.9414 121.604 101.251C120.814 106.011 120.054 110.791 118.954 115.491C118.654 116.771 117.334 118.591 116.224 118.801C105.224 120.801 94.2237 122.621 83.2237 124.451C82.9837 124.531 82.6737 124.301 82.0637 124.061Z" fill="#CBD5E1"/>
<path d="M253.284 81.8414L292.174 85.8414C293.474 98.5614 294.774 111.271 296.174 124.671C289.504 123.591 283.324 122.611 277.174 121.571C272.854 120.841 268.564 119.651 264.174 119.341C260.624 119.081 259.234 117.691 258.714 114.281C257.074 103.671 255.184 93.1214 253.284 81.8414Z" fill="#CBD5E1"/>
<path d="M126.424 294.371C113.864 293.121 101.974 292.011 90.1137 290.671C89.477 290.496 88.8936 290.166 88.4155 289.711C87.9374 289.256 87.5795 288.689 87.3737 288.061C85.9837 276.191 84.8337 264.301 83.5437 251.641C90.9837 252.851 98.0637 253.991 105.134 255.161C107.374 255.531 109.594 256.011 111.824 256.431C120.464 258.041 120.424 258.051 121.754 266.811C122.434 271.291 123.284 275.751 124.044 280.231C124.804 284.711 125.554 289.151 126.424 294.371Z" fill="#CBD5E1"/>
<path d="M251.684 294.361C253.744 282.211 255.624 270.922 257.684 259.652C257.818 259.189 258.062 258.766 258.394 258.418C258.727 258.07 259.138 257.807 259.594 257.652C271.004 255.562 282.434 253.651 294.474 251.531C293.854 258.401 293.324 264.651 292.734 270.891C292.214 276.301 291.784 281.731 290.934 287.091C290.724 288.431 289.204 290.482 288.094 290.622C276.234 291.982 264.384 293.111 251.684 294.361Z" fill="#CBD5E1"/>
<path d="M157.984 308.081L188.314 286.661C198.314 293.761 208.214 300.731 218.604 308.071C212.194 313.321 206.104 318.421 199.904 323.371C195.984 326.461 191.984 331.581 187.984 331.651C184.244 331.721 180.354 326.381 176.594 323.351C170.484 318.401 164.424 313.391 157.984 308.081Z" fill="#CBD5E1"/>
<path d="M188.254 43.4314L218.584 68.1814C208.674 75.1814 199.224 81.9114 189.664 88.5014C189.157 88.7205 188.605 88.8158 188.053 88.7792C187.502 88.7427 186.967 88.5755 186.494 88.2914C177.074 81.7714 167.744 75.1114 157.984 68.1814L188.254 43.4314Z" fill="#CBD5E1"/>
<path d="M43.5037 188.141L68.2637 157.831C75.2637 167.751 82.0237 177.191 88.6137 186.731C88.8301 187.235 88.9249 187.783 88.8901 188.33C88.8554 188.878 88.6921 189.409 88.4137 189.881C81.8837 199.291 75.2237 208.621 68.2637 218.441C59.8737 208.171 51.7737 198.251 43.5037 188.141Z" fill="#CBD5E1"/>
<path d="M308.234 218.462L286.804 188.152L308.234 157.812L332.984 188.142L308.234 218.462Z" fill="#CBD5E1"/>
<path d="M371.984 161.491C378.424 178.661 377.574 194.871 372.414 212.201C367.704 205.551 363.464 199.571 359.244 193.591C354.244 186.591 354.244 186.541 359.244 179.591C363.254 173.771 367.354 167.981 371.984 161.491Z" fill="#CBD5E1"/>
<path d="M336.534 299.231C332.114 312.371 316.624 328.231 301.624 334.851C302.794 327.571 303.844 320.671 305.034 313.801C306.614 304.571 306.654 304.541 315.914 302.801C322.684 301.571 329.474 300.451 336.534 299.231Z" fill="#CBD5E1"/>
<path d="M4.13366 212.161C-1.03634 194.801 -1.86634 178.522 4.58366 161.552C10.3937 169.732 15.8437 177.342 21.1637 185.032C21.4041 185.465 21.5394 185.948 21.5585 186.443C21.5776 186.938 21.48 187.431 21.2737 187.882C15.8037 195.792 10.2037 203.601 4.13366 212.161Z" fill="#CBD5E1"/>
<path d="M164.594 371.981L189.824 354.121L214.244 371.351C204.564 377.641 179.534 378.041 164.594 371.981Z" fill="#CBD5E1"/>
<path d="M40.9836 299.151C51.2636 300.911 60.4936 302.461 69.7036 304.151C70.1115 304.264 70.4871 304.471 70.7998 304.756C71.1126 305.041 71.3537 305.396 71.5036 305.791C73.2236 315.291 74.8036 324.791 76.5936 335.321C60.8036 326.771 48.8536 315.851 40.9836 299.151Z" fill="#CBD5E1"/>
<path d="M164.204 4.06146C181.414 -1.01854 197.624 -1.80854 214.984 4.43146C210.614 7.54146 206.984 10.2315 203.184 12.8015C198.724 15.8615 194.184 21.0815 189.664 21.1515C185.354 21.2115 180.944 15.8415 176.664 12.8215C172.724 10.1415 168.984 7.41146 164.204 4.06146Z" fill="#CBD5E1"/>
<path d="M41.0436 74.9815C49.7136 59.1015 60.6236 47.1015 77.1736 39.4115C75.4736 49.5515 73.9836 58.8715 72.2936 68.1615C72.159 68.5679 71.9289 68.9362 71.6227 69.2355C71.3165 69.5347 70.9431 69.7562 70.5336 69.8815C61.0436 71.5915 51.5436 73.1815 41.0436 74.9815Z" fill="#CBD5E1"/>
<path d="M301.474 39.6814C317.554 47.2114 328.404 59.1614 336.964 74.8814C329.514 73.6714 322.874 72.7014 316.274 71.4914C306.124 69.6414 306.084 69.5814 304.224 59.4914C303.124 53.4914 302.224 47.5614 301.224 41.5914C301.24 40.9477 301.323 40.3075 301.474 39.6814Z" fill="#CBD5E1"/>
</svg>
