<svg id="_002-instagram" data-name="002-instagram" xmlns="http://www.w3.org/2000/svg" width="16" height="16" viewBox="0 0 16 16">
  <g id="Group_15" data-name="Group 15">
    <g id="Group_14" data-name="Group 14">
      <path id="Path_7" data-name="Path 7" d="M11,0H5A5,5,0,0,0,0,5v6a5,5,0,0,0,5,5h6a5,5,0,0,0,5-5V5A5,5,0,0,0,11,0Zm3.5,11A3.5,3.5,0,0,1,11,14.5H5A3.5,3.5,0,0,1,1.5,11V5A3.5,3.5,0,0,1,5,1.5h6A3.5,3.5,0,0,1,14.5,5Z"/>
    </g>
  </g>
  <g id="Group_17" data-name="Group 17" transform="translate(3.874 3.874)">
    <g id="Group_16" data-name="Group 16">
      <path id="Path_8" data-name="Path 8" d="M132.126,128a4.126,4.126,0,1,0,4.126,4.126A4.127,4.127,0,0,0,132.126,128Zm0,6.705a2.579,2.579,0,1,1,2.579-2.579A2.583,2.583,0,0,1,132.126,134.705Z" transform="translate(-128 -128)"/>
    </g>
  </g>
  <g id="Group_19" data-name="Group 19" transform="translate(11.74 3.16)">
    <g id="Group_18" data-name="Group 18">
      <ellipse id="Ellipse_2" data-name="Ellipse 2" cx="0.55" cy="0.55" rx="0.55" ry="0.55"/>
    </g>
  </g>
</svg>
