<svg id="pinterest-logo" xmlns="http://www.w3.org/2000/svg" width="16" height="16.001" viewBox="0 0 16 16.001">
  <path id="Path_272" data-name="Path 272" d="M14.936,3.985a7.967,7.967,0,0,0-2.912-2.912A7.825,7.825,0,0,0,8.009,0,7.825,7.825,0,0,0,3.993,1.073,7.964,7.964,0,0,0,1.081,3.985,7.825,7.825,0,0,0,.008,8a7.755,7.755,0,0,0,1.323,4.406A7.973,7.973,0,0,0,4.8,15.334a6.9,6.9,0,0,1,.135-1.844L5.967,9.136a2.778,2.778,0,0,1-.26-1.271,2.386,2.386,0,0,1,.448-1.479,1.332,1.332,0,0,1,1.094-.594.977.977,0,0,1,.8.344A1.32,1.32,0,0,1,8.331,7a3.235,3.235,0,0,1-.12.786Q8.091,8.25,7.9,8.86t-.276.974a1.183,1.183,0,0,0,.24,1.089,1.274,1.274,0,0,0,1.021.453,2.1,2.1,0,0,0,1.828-1.24,5.944,5.944,0,0,0,.713-3.011,2.953,2.953,0,0,0-.88-2.219,3.375,3.375,0,0,0-2.453-.854A3.793,3.793,0,0,0,4.154,7.886a2.369,2.369,0,0,0,.531,1.573.475.475,0,0,1,.115.448q-.021.063-.083.312c-.042.167-.069.274-.083.323q-.083.333-.4.208A2.35,2.35,0,0,1,3.018,9.594,4.166,4.166,0,0,1,2.6,7.688a4.545,4.545,0,0,1,.224-1.4,4.761,4.761,0,0,1,.7-1.349A5.481,5.481,0,0,1,4.659,3.792a5.328,5.328,0,0,1,1.609-.8,6.688,6.688,0,0,1,2.042-.3,5.36,5.36,0,0,1,2.656.656,4.689,4.689,0,0,1,1.8,1.7,4.287,4.287,0,0,1,.62,2.229,7.009,7.009,0,0,1-.542,2.813,4.618,4.618,0,0,1-1.531,1.963,3.75,3.75,0,0,1-2.25.714,2.471,2.471,0,0,1-1.188-.3,1.737,1.737,0,0,1-.76-.7q-.469,1.844-.563,2.2a6.408,6.408,0,0,1-.813,1.708,8,8,0,0,0,6.287-.74,7.962,7.962,0,0,0,2.911-2.911A7.827,7.827,0,0,0,16.008,8,7.823,7.823,0,0,0,14.936,3.985Z" transform="translate(-0.008 0)"/>
</svg>
