<svg xmlns="http://www.w3.org/2000/svg" width="19" height="16" viewBox="0 0 19 16">
  <path id="_003-twitter" data-name="003-twitter" d="M7.089,16a15.855,15.855,0,0,1-2.518-.206A11.614,11.614,0,0,1,1.126,14.5L0,13.872l1.219-.412c1.332-.451,2.143-.73,3.146-1.168A4.272,4.272,0,0,1,2.214,9.726L1.93,8.84l.233.037a4.33,4.33,0,0,1-.53-.672,4.213,4.213,0,0,1-.68-2.452l.053-.773.45.179a4.409,4.409,0,0,1-.407-1.175A4.585,4.585,0,0,1,1.512.973L1.9.233l.524.648A9.582,9.582,0,0,0,8.675,4.5,3.948,3.948,0,0,1,8.9,2.458,3.8,3.8,0,0,1,10.413.675,4.439,4.439,0,0,1,13.048.009a4.147,4.147,0,0,1,2.586,1.1,8.513,8.513,0,0,0,.947-.325c.208-.08.443-.172.738-.276L18.4.121,17.7,2.2c.047,0,.095-.007.145-.01L19,2.137l-.685.963c-.039.055-.049.071-.063.092-.055.086-.124.192-1.064,1.484a1.86,1.86,0,0,0-.331,1.187,11.524,11.524,0,0,1-.6,4.514,8,8,0,0,1-2.084,3.177,9.1,9.1,0,0,1-4.363,2.171A13.068,13.068,0,0,1,7.089,16Zm0,0" transform="translate(0 0)"/>
</svg>
